<mxfile host="Electron" modified="2023-07-28T19:20:01.816Z" agent="Mozilla/5.0 (Macintosh; Intel Mac OS X 10_15_7) AppleWebKit/537.36 (KHTML, like Gecko) draw.io/21.6.5 Chrome/114.0.5735.243 Electron/25.3.1 Safari/537.36" etag="-wzVb_xVjnAELAG6KOyu" version="21.6.5" type="device">
  <diagram name="Multi-Account VPN" id="ZJdoB2KEbNClQ0YEIJfC">
    <mxGraphModel dx="2903" dy="1906" grid="1" gridSize="10" guides="1" tooltips="1" connect="1" arrows="1" fold="1" page="1" pageScale="1" pageWidth="1100" pageHeight="850" math="0" shadow="0">
      <root>
        <mxCell id="0" />
        <mxCell id="1" parent="0" />
        <mxCell id="dmvshPAs6uem1ls85Fd5-22" value="" style="rounded=0;whiteSpace=wrap;html=1;fillColor=none;glass=0;shadow=0;align=left;" parent="1" vertex="1">
          <mxGeometry x="-420" y="-340" width="1950" height="1900" as="geometry" />
        </mxCell>
        <mxCell id="CSp4rStRpKvOpnRkwokL-26" style="edgeStyle=orthogonalEdgeStyle;rounded=0;orthogonalLoop=1;jettySize=auto;html=1;exitX=0.5;exitY=1;exitDx=0;exitDy=0;startArrow=classic;startFill=1;" parent="1" source="CSp4rStRpKvOpnRkwokL-2" target="CSp4rStRpKvOpnRkwokL-2" edge="1">
          <mxGeometry relative="1" as="geometry" />
        </mxCell>
        <mxCell id="dmvshPAs6uem1ls85Fd5-23" value="Example Architecture with Distributed Internet Access" style="fillColor=#4DA1F5;strokeColor=none;shadow=1;gradientColor=none;fontSize=14;align=left;spacingLeft=50;fontColor=#ffffff;whiteSpace=wrap;html=1;" parent="1" vertex="1">
          <mxGeometry x="-420" y="-340" width="1950" height="30" as="geometry" />
        </mxCell>
        <mxCell id="G7_3h8PGm13UY0RfsEPe-10" value="Optional Network Tools" style="rounded=1;whiteSpace=wrap;html=1;fillColor=none;verticalAlign=top;dashed=1;" vertex="1" parent="1">
          <mxGeometry x="-60" y="190" width="170" height="550" as="geometry" />
        </mxCell>
        <object label="Region" id="CSp4rStRpKvOpnRkwokL-17">
          <mxCell style="" parent="0" />
        </object>
        <mxCell id="CSp4rStRpKvOpnRkwokL-1" value="AWS Region" style="sketch=0;outlineConnect=0;gradientColor=none;html=1;whiteSpace=wrap;fontSize=12;fontStyle=0;shape=mxgraph.aws4.group;grIcon=mxgraph.aws4.group_region;strokeColor=#B6BABF;fillColor=none;verticalAlign=top;align=left;spacingLeft=30;fontColor=#B6BABF;dashed=1;" parent="CSp4rStRpKvOpnRkwokL-17" vertex="1">
          <mxGeometry x="-90" y="-250" width="1600" height="1740" as="geometry" />
        </mxCell>
        <mxCell id="CSp4rStRpKvOpnRkwokL-20" value="Transit Connections" parent="0" />
        <mxCell id="CSp4rStRpKvOpnRkwokL-19" value="Transit Gateway Attachment" style="edgeStyle=orthogonalEdgeStyle;rounded=0;orthogonalLoop=1;jettySize=auto;html=1;startArrow=classic;startFill=1;" parent="CSp4rStRpKvOpnRkwokL-20" source="CSp4rStRpKvOpnRkwokL-18" target="CSp4rStRpKvOpnRkwokL-15" edge="1">
          <mxGeometry relative="1" as="geometry">
            <Array as="points">
              <mxPoint x="560" y="530" />
              <mxPoint x="560" y="180" />
            </Array>
          </mxGeometry>
        </mxCell>
        <mxCell id="CSp4rStRpKvOpnRkwokL-18" value="Transit Gateway" style="sketch=0;points=[[0,0,0],[0.25,0,0],[0.5,0,0],[0.75,0,0],[1,0,0],[0,1,0],[0.25,1,0],[0.5,1,0],[0.75,1,0],[1,1,0],[0,0.25,0],[0,0.5,0],[0,0.75,0],[1,0.25,0],[1,0.5,0],[1,0.75,0]];outlineConnect=0;fontColor=#232F3E;gradientColor=#945DF2;gradientDirection=north;fillColor=#5A30B5;strokeColor=#ffffff;dashed=0;verticalLabelPosition=bottom;verticalAlign=top;align=center;html=1;fontSize=12;fontStyle=0;aspect=fixed;shape=mxgraph.aws4.resourceIcon;resIcon=mxgraph.aws4.transit_gateway;" parent="CSp4rStRpKvOpnRkwokL-20" vertex="1">
          <mxGeometry x="220" y="500" width="78" height="78" as="geometry" />
        </mxCell>
        <mxCell id="CSp4rStRpKvOpnRkwokL-66" value="Transit Gateway Attachment" style="edgeStyle=orthogonalEdgeStyle;rounded=0;orthogonalLoop=1;jettySize=auto;html=1;fontColor=#000000;startArrow=classic;startFill=1;" parent="CSp4rStRpKvOpnRkwokL-20" source="CSp4rStRpKvOpnRkwokL-18" target="CSp4rStRpKvOpnRkwokL-49" edge="1">
          <mxGeometry relative="1" as="geometry">
            <Array as="points">
              <mxPoint x="560" y="570" />
              <mxPoint x="560" y="820" />
            </Array>
          </mxGeometry>
        </mxCell>
        <object label="Hybrid Connectivity" id="bsbCJZqVYZQD6unG8yCq-36">
          <mxCell parent="0" />
        </object>
        <mxCell id="G7_3h8PGm13UY0RfsEPe-11" value="VPC IP Address&#xa;Manager" style="shape=image;verticalLabelPosition=bottom;labelBackgroundColor=default;verticalAlign=top;aspect=fixed;imageAspect=0;image=data:image/png,iVBORw0KGgoAAAANSUhEUgAAAG0AAABsCAYAAABgpDzzAAAEDmlDQ1BrQ0dDb2xvclNwYWNlR2VuZXJpY1JHQgAAOI2NVV1oHFUUPpu5syskzoPUpqaSDv41lLRsUtGE2uj+ZbNt3CyTbLRBkMns3Z1pJjPj/KRpKT4UQRDBqOCT4P9bwSchaqvtiy2itFCiBIMo+ND6R6HSFwnruTOzu5O4a73L3PnmnO9+595z7t4LkLgsW5beJQIsGq4t5dPis8fmxMQ6dMF90A190C0rjpUqlSYBG+PCv9rt7yDG3tf2t/f/Z+uuUEcBiN2F2Kw4yiLiZQD+FcWyXYAEQfvICddi+AnEO2ycIOISw7UAVxieD/Cyz5mRMohfRSwoqoz+xNuIB+cj9loEB3Pw2448NaitKSLLRck2q5pOI9O9g/t/tkXda8Tbg0+PszB9FN8DuPaXKnKW4YcQn1Xk3HSIry5ps8UQ/2W5aQnxIwBdu7yFcgrxPsRjVXu8HOh0qao30cArp9SZZxDfg3h1wTzKxu5E/LUxX5wKdX5SnAzmDx4A4OIqLbB69yMesE1pKojLjVdoNsfyiPi45hZmAn3uLWdpOtfQOaVmikEs7ovj8hFWpz7EV6mel0L9Xy23FMYlPYZenAx0yDB1/PX6dledmQjikjkXCxqMJS9WtfFCyH9XtSekEF+2dH+P4tzITduTygGfv58a5VCTH5PtXD7EFZiNyUDBhHnsFTBgE0SQIA9pfFtgo6cKGuhooeilaKH41eDs38Ip+f4At1Rq/sjr6NEwQqb/I/DQqsLvaFUjvAx+eWirddAJZnAj1DFJL0mSg/gcIpPkMBkhoyCSJ8lTZIxk0TpKDjXHliJzZPO50dR5ASNSnzeLvIvod0HG/mdkmOC0z8VKnzcQ2M/Yz2vKldduXjp9bleLu0ZWn7vWc+l0JGcaai10yNrUnXLP/8Jf59ewX+c3Wgz+B34Df+vbVrc16zTMVgp9um9bxEfzPU5kPqUtVWxhs6OiWTVW+gIfywB9uXi7CGcGW/zk98k/kmvJ95IfJn/j3uQ+4c5zn3Kfcd+AyF3gLnJfcl9xH3OfR2rUee80a+6vo7EK5mmXUdyfQlrYLTwoZIU9wsPCZEtP6BWGhAlhL3p2N6sTjRdduwbHsG9kq32sgBepc+xurLPW4T9URpYGJ3ym4+8zA05u44QjST8ZIoVtu3qE7fWmdn5LPdqvgcZz8Ww8BWJ8X3w0PhQ/wnCDGd+LvlHs8dRy6bLLDuKMaZ20tZrqisPJ5ONiCq8yKhYM5cCgKOu66Lsc0aYOtZdo5QCwezI4wm9J/v0X23mlZXOfBjj8Jzv3WrY5D+CsA9D7aMs2gGfjve8ArD6mePZSeCfEYt8CONWDw8FXTxrPqx/r9Vt4biXeANh8vV7/+/16ffMD1N8AuKD/A/8leAvFY9bLAAAZgUlEQVR4Ae09B3iVRbYndCEQ0kNHSgL66CTURVf8RKSLbV157toQYfVTPmVtT32IZT9ddR+uCLjW/UQFKVItb0GpoeNjBRIETCD1Bgg9lLxzZv4p/9zy/0nuDTfxDtw7c+acOXPmnDnT/vlvop4fUlJeDuUQhf8icc3QQ71L5ZeAAhmMB54SsBkLSjNfwBE814TQhxkHQz91LEvJSJhOZhiJCN5QiAFWh37qAXoaVRSFn0hcM/QgPc3sIRHY7kLhpA+c0+zi2CHufbr4EbyujcujH+lpdlEiUDhroF654WnhLGxENq6BOmwFQmlaiVCIxGGvB+5pYqKKxNxgYa6HyJzGzVSjvtWcFua9SzuwqRHeEEp5I55Wo3yMC4ueRmeP5GZiBUKI8IPbd28IMSn1IS6lHspHMvP+VpJ/AY7nn4ejBfwM9XjBhbCUP5j6JQ1oIXyM1eOGJtCxVwPolN4AYlsZYmoSm8nszDLYsuwUHNxZBscLziM6vDtjZeSrx06haa8m24bpywQ3T6oH1/2hGXTMaADxFTCUbrhOWJY+FLIzz8K3c0/AwV1nw6J9XM6q6zdwF2bGk9bkderfQcI3T66LxmoOGeMa69y90p7DF+AofiiY3ufLyJ0yGqEBGzHjzZ9xDI4V8rKScZDkl/zMRIj4Rz3R7xcyPVZHxqn+uOewaPjdC3FmcyWcufAU7N9xFg5uP2cp3bec7Xs0gg49GkDHPmiofo1keT2x6u/HYNvK0wH5XC49VKRezWiieUIpoYfvfyvJp4I/fc6DRjqLyr2IQlRcnnZkvB4Noe+YaK9hlrx19qQCize1seL8eecOvX54Dd7yRT3e7xAeP+Jj9ii8blBNcUxiHbjtmQTobHgEedX8Vz1BlWPo3TGQPgqN10bNBJ6cCzBrMhoOV5rV2e5g6bfa92kxSXW9DJa16Sz8fWIBfPFKsei+QYv/96NS+Gx6MZCHiUAGfHpJK+g1rInIqlFx1NR+P5dH0ayGXhjqmFaHtz9NHnaFVNKmhSdh/itF1VL/LU8kQv+bo2XdlHhxdA5uDS5US/3B0q/N08hwgUJV8abBNn55Er54tUhWWVX+TuXn/6UIZj6QDzQ8ivDMkjYQk8yHTqfy4YKvQ3syuVejJaoGi3wRE66y+KETmts8LGvTGZy/Cm38qsJflHWS7+DO07ByTonNcJPebgE0bAseor1mHC54m6eJ3hfsmHry8Mmxki0Z7N2H8yRc3Yntq05C5pITslqa4+54OlHC4Z6oO6Dlw8+HWsi7X0qB+Nb1WTWenPPwxh9yQ12lI/+fd56BS2UAnTP4/EryXSwrh593nPFbtl33K5izNWxSB86eou3I5QlqHRyi+qmhqf3VwkPv4SGq0jXbbz88iptxJV/G6KawecVJOF5IZ5YAJHvfm6IhLf0K3DLwTieY79t4BjYvPcE2/oJe4EIdRz3aJ4uOQUIWnl7YTjaYvGzGuEMhq6syjGOS68OUWS2ljMtnlsC3H5TArU8mwYDxzVyx/OTZAti2Qg23rgpVgSiknkYK0XvopsXODRv3eCK07tKQNWn+y0WQl31ONq/3sKYw6LYYCftL5Ow+Cz+uPgn7t+FBsUOgJwEk101T+FEaxf3GNLXJ7cAC7pqeDOkjmsG86YXWkwWnElXDsyfX5Gr6aj9YcN/hak9EXvbN+x4mbSD+V+IZojAareiO4EAg6JOurA+EdwpEM+TO5ozs2/dLYOlMT8D2ZS4vtRlK72h7N56GrC1nWAeglSeFdj0aQ78RTSEV50NBm4ZTwB3PJsKn/12IJy3nA9Yn2sOY4VdFYe/VYx1iwYNKiRyMK4AfMSVeFty4uJSnncrLEsFJXP/HOJj2WVvFzEf9pGQpn6IEMtisyYeBDC8MRu2n9OcvFcD0sQdhwwKrXVgurX9jSL+pqeRQVf35K1/vUtQlwP9wSZgPKaNwPyZgKlgZPD1l1sPXH+ARFbmzE3/W73jJcqxYl69cUzh57dK3+bEXyVcu5MeiDepHoaHaQUJbPsy26NQQohPqQKkHN9V+6t+8/Dj0G9sMEqxVLnnnN5bMgdo/7+U88Bw5DyP/xDsoddSsrafhwI/cKyurv0D6Z03VG0zqCgbc9yY19xTn8tUYN4Uzf0EnYlMekS9iE192vhym33yQG8kiuv2pZEHus31HccU484EcWLfgOLx5bw43mFXC5G/C33xYDHob75qeArFJqtOa9FWF69DJM93nD3Yc20KtcahBrvlL1aJxsZvq5djVEA3vJPecxw5L6q6Dmzi201NQBp+9lIfL+FO2ep3qIfzH/5UnDUfe2qHnFY71ueGrt1/Qa4OKbF9QEgmtVE/bt5kPFUFhXAEmp0+oDXDduvpSqwJMXJIewHlu7ybVzo59Aj+Fd8nWJ1md8kvcyyjGroGvqwUHFicgola3/LUpjbmaTR5yPSuwpIO8va5Ti4I9G04FtX2+2pO99aQQDwaNj4HYRHr9Lzj61OsLmadJ6TGRvQ0VVs2B/GrkFHWeuGXl8ZBLsGVFqRwiQ1mZtU/jyy9arUXhLImzHFstVAnWpCZ+NDa74acVw1JWOSEPxVaIwzkzpXN9XNniE3dcVYq4XVfcQ42Ogc597A84Ny4+5qr+qrZfyEdxH1yMbVl+FEpwrqTVj5v2u6lfrRb02qqQTkdBRzyUJJfOxCoOl/8HwP9BbGWq6zs8BujjJsy4LdsNWVBoinPKZNvHPJwI9KGhefnsYlzgOJ8IuRGiHlmfvIDevcYv1hsqA99wDxfQV6WevDKswx1/kkEGyzuVPBLjKnHxYjk8M2wvHC/GEwr2BLPy7XOrn7246OoywO7lBNOHjLdsdiHs345zn0t9+LKP8jSa3TR9sVvXLuAOPZvA3S+0lBtZU5vvP5mLjztOQVQdnGVc8DPLS9iYfb/50ANfzcRncmgMMipd0BH3JS5cwGGeYOqMFFOoZPt4Yfflv36/AEoOn4MBY2MhAS/cig0+8eHGu5IZ75MXcuFoPg6bIlRAPnaXn9pGGmVttGI3cN9hsXDPq21EtTL+4YsSWPleIZSghwndueHH5ZBsSBLmoUo+ywBIcunCRThfRsZRtmHyW7Db+thP3lSy/f70lbmyBDavKmH6zLgxFvqPjYOumveR8V5cmQb/mJYDW1YdZXQVkVd5mtKVq1Q6GuyPhsHIWJ/OyOXGV/p1xa8mEKWjATqnN0EPaggbF5VA1s5TcEz3Fh+N2IxGyVyJz+16NYERE1NsxqMOH4+8Vr6X76Ok/yz0NGZj+qL/+MX6XkCYhkTdYMW/nIMPns2F7B0n8XjRuTx5kL/6mAyWvDQN2eVTq0ei43yqVp+b9vYd3hzGPJRsG+qE5/yE89TSWfk4BZwMqD+ax956MBsyboyD0ZNxoWadi455OAnbeBFW/aMwYHldX+hpupqY1SyViciOj8WV4OMfdhRIIIM9M2qP9ijCTl9R/pKxTJj8JMJKmPjgwOnD0av6RMNvbvV/ZZ0EION1HdARftpwAtYvPoqLjFNQYvM+uzybcejMQgNPndNBGm7wuDjIXH7MKmen96U/9tYMkemkgeAJz7W2lAXMYO8/k4NlWZ+X+YHKE5ETXjDifDlvXT7OQ9XqxK8i+PRhcTBmit2rhDwU/7T+BBQdLoOr+kVLpVN+1wFN2UfQfDWrAPbv5CckZv0l+efg9fv3o+E6QlFuGbw5aT8Vk8GkN2E0mj0EguNSGkDXgepo6IeFJZBtCSa4BCpPNE54wUfEJr3IF7GJrwycgYaiuWrIrer5n+Av4u+/8MCKubgy1LyoY49oGPVgsk0nRE86og8ZeP2io0xHopyQj2AynMgX9Qh8ILhCv401/F71eIOGxRXv5YlHZEGLcV0o5EULYxNwP0MNoXWNzZ8RR3s/ni/wFYvTh8fD2MkpNo9RlXOvWr+4BDat4E++lRy8nuwdpfDmg6V4ot8UBoyMg6v6G95nGY94kgGXsLnvhGyPJ+9speT3u3o0LU4VD7lN9cRFbwde8fgqTzxE8Ic/d0Zhzp1WN4Gp3LkzyqB6WvDUY8VFzwXIQEPRXKW3xU4B8P3nHlg+Nx+94BxTqoknWOdPJx0/44fyOqEBRz2Iq0RtRCJ63fvWYUfIxoUJ8fcXdP4mTdR9/7ElEF7SkzDTPk6V8P3dtsp0TUiQscZNaeHXq3azocwDmehVwQikr/6j4uFqw/t03lTn0nfycNVdseMtv56mM6c09U4RqLKaEshY9/+lvV9x15BXzckL2Ov9Fg6AIEMIY5ABR05qAVcb3kcwfUifHz13yLUMbMlPU4cYXMUJgwnHt+TvMZOcezeV8vkFy/mjN8tfDjguuYFPg+1eX4oLBJyrlhe7lj+uRQMYcX9L9JymzFsZjy9pIVYKdLYaqH1Z20vhjYml0KlHMxgwOk7yEDYnw/UbEYtDMq4RrL1pIH721SPN6nogBhac0FoZTZJoeJYXoPzlwktZMUGK/ui5g0rJLuTPGJ4AA/EY6uqB9ourBIu8NZ8Xw7I5R9BTtLNEqtjgTwbejx9ykk69msF9M9Tlo/iWeAnJpf7Y8zRpGWRmHYbztpLFiBHGya35zSZCFOOBKD95V3jKJzp/5S8Hnj3tZRXzrw+ePWA927Iytfbp8pGHjpzYyssjNFa25DW3JQB9dq8thXWLiiFr+wlVj6U/nT/pKWv7cVizoBjGP9pK8mJPuQ16oX+9vDWnWdJLS/uCJW/sqdaqJyA9IsMGb8nuIE8/nP8G3ZwgPUi12HeKtj3iOIoorh6M3ocfCuR9S2cftrzPlz6lMIyefcksP/QWnnsalWATmypvwvoeKb5FQzyKMRYjDuVNftUB+xKJjRBae+NSGsLIB3CRMKAZJLb1fXt59WeFsH4JX1U+9c+uTElFv5yFacN3wYj7WsKQ8QleZU3v27iC39GUGmbCkXF4oD2nlI2yfAlv0do9zcpk45xyE+IAuzeUwrWiUfQeqi1YPUPmhRssBbMSSr7XvuthIhlMRln4tyOwj4a6fHonIIrtwUziZXOPwLK5hxHXDMZMagVJbRvYDCi8L75VA6Q7YhVX9Zv8OGzi7bDlabRppadwgWLFPrVvU9iwjHpOIHonfqHH0+m5HgjmvZnLTdcgzMC9qgjnHDo39NU+VYLz5+2gFeJrDxxDZB3mfdfckmgzXlp6M1g6J4fhBV+bZyFG5xfIHlSjq7A3Uw2H196ehPc+fKwmXXEKX6Kp122DD184gAZT9/MrI+2yubnwxI07gTpAKALeMLZuPDnEG5YXQsEh9epQZ9wwUk9xW/5y0elK8yWvjqezQCc5BT1eZ3RsP62yVSBd2fWlcDxl4v3B6jeMBQe5grEyNPinjeru4LhHWqO3+d5bCFYs1spfFtgmDAKmPE74UNNXtH6UB28YG54WAF67SLl7crtGeLKdiIfw7suznlON9HxBpWsFe7pWv4l3I5+NG3mOxs9XeSd6gede5cyP6quQp9FY/6/PCkQ9cOvUtkDLf1swe+blhm3CIWDK44QPNX1F60d52FszzMq4rGf/2LhrpCnP+rdk1i+2ue2v/+rLFiUCL3sM0QteWnmZV014XSdMRiGTVb8T3iYvltGDxPlpn05LabN+J7w//nz1aPYmAZsx1kKnId/Pty9K3lidDgNGqHvzsjf7KM8ENfMFLFohYDOuLF6UE7E/vv7wgl7gRSzyRWzmC9iMTXp/eEEnYosO92m0F6lYWDL7IHv36tpbk4HmNgqTXk+D1PQY+Ao9kVZh4RCop+qB91zVXm+8wunlZNrOjq00Jc5Hgt4nE8Gsm/J1PK4MHPkJXq73aaKAiJfOOQQL3jpkGyqH3pECb67OgCfmdofUXs1xvvN9LCR4ROLKaYD/hnHlysL6Zfmwd+sxeOqjHtLjiFW33zRnH0r/+AOdEgAU5pzFn+/T9y0sO6hf65bij5WxIyfO1tuT2Kwi6/TCG3OWJLQSVFoPJqzjKG2e9pn0Njw6uYk3+QnY9ZNrUcCMSUlTb9gEA0ckw/hH2tuMR7RkwOoKe7AD6Uarrnqrux51yl/FmqmX06czDovjp7THg9OGaED180pVZO+quHgnWRBrUwrLIlj3Lm+83ZMEHxHrcxDzC5OBILRimqf0oNdN+XY8+pkDP8Gryp4mGIk4a/sxeOXeHQwkAya0bMQ+lJGI99ZDGUrEc75QVhIGvNmcRmMrPXHWYyGbmS9gN/isbUfx0Yadb0XKUx2C3ozd1G/2XILpn5hLTDx2dVmfL/6B6H3JJ+oRvEz+Op75pEP9wj5+V48kRKDwa8cH0g3hQqkfvGFMYykXofbF9n0X25Pa2mviuSL86cGYolBvgen1OUu8d84Maulbx/P8wPyEXMzTaMhgwfIuCfNcNqTURDx/4mw1giI/7ZMUfvBSH35GHxMvYcnYSvjhL8n84CU/Cy9Xj6LXCAYStuwpYYtAwuGOFw3CmGQWcrO06Kxmmyxalq21T5SlfMpmytTwjN760mlZFo6Xeh6l9YVZUS49y7OYEW+R9sHf7mmiQrMxNRjOP6R+VSG+Bd+CyJ5rtdeMTLwJB4s+qY3vLZFZnwkzT1OZZFbrzUomWW2AlYoTW9aHfduotaL72u+QxOGPinrwwqnEMzqlj3Kw0/NzW4Xn/qdg/Vy3IOcMeg/NoQqvJAN85+20D7xv/WurR6shklPtgH9ce1S2qEtGvEyTgj0B3lrhBtDIhaH1LFvaW1+JrZUnFeUqj+fFyqH7EPUL6kVH1O9qCbyNvVY/e57G3gHDOqknsLGUxbUD1toKyW0aerUv/6BSZmqfOC+8XR+aGl3oq9sgZRQqqes3Ltl+0LAPj+B0PE1p/mDN0zSBWNK+HDax/BqYd67KCY/y/84skSJ1HxIP8XSvhQUun+6Jv72lhaR1bp9G6iMZj7fVUtorT1u7WP2MIZEPHqPq0juOYuVff+hpF63fJTRj8TuQZr6AawZ+3Ve5Sg+Yov2SOKOkeM1CuovIAxm1M74YoeN1/VDP1wOnE/qwx4NGqzv6ZJTivNOGntX+4bt5h9Gr7OXJw/3xD+Bpung1O6335MGj1Yv+1Kp9eNSm46e83h3i8by0KiG1dyz8/s+dJAsyihl0vIlzgvH32/AfWpWtmKy4tsHfzlPeNPSOlninpZGtvX97bCcaji8EaEi7eVJHiCPD+dCHUiibdBgfXV9U7k+vd5NkxHfhrCxbfWMmdpB4Sph4nZ8v+9g9TXksZ1pL4B8WH9GM0hjS+lq/DWK1j7ztu3lqGL3hrjYw6eVu+Gs6ak5iCnHQR2qfWJi17lqcy9Svqv7P1F1cl/Rtlb/+DuXt/3xlnxdeZvipj90RwT5Dgz39Z3xrG1ycdwp2rfVIZd45tRM+cfdAMS6zSS/UXurtCWikYRPaIATQA+c3MsDXn+TA/JnZ+BIGn5MY0vq6hHMclR84qjUMvaU19LhG31IAfPLyPlaPrs+03nFSDmKzOxP/MiO9M4BERCfkCQQH/XkaCRKOYfWXuUAeRIE8IQ2X92Q0Pcx+dhektG1sUz6VEeXEECp4vL36tzYD6Lw+QQ9a+G4WM4Ke//Bf1Vs6xG/fNrW61ekCpet2jf3d8+wxApq4Nsee/DPQPP4KfO85hunjyquawcaVBXDmFP6SOXVvq/3fL8qF3P2noQPio5vb36pxgokxGWLGPVvwKT7+sJvGl/iPndgZBo1SS32i86AHm3ROcN2uze98nioj/hRqc3zg3ycg4/pkZgwyAKU3oeFOo+H0dv+yr5TlHysqww15Yy/jcU3Zv1d9nAOL5x6Ad5/eCcXYQXR+RJnWKx4em9lTFtq5phgW4JBs0rmBo8a1XYJrJBWoUG2Gb34wFSY8mSYb/PHLe2HN4ly8q8mHSl/tT+3N56qEVo0hGee9JDyeKsRjqYLD3Dhrv1KrU1/l41o0hrkbh8o689AbH7rmOwb7onfSf9RYNJrkhgmTiY6jdG3AjzMMtwN7/cxpO5nhgt2+NDT4KwsH2tT453HrYe823z8y46Z+/jdByddoT6J9BGzGgsbMF3BNwC94Zy9Qbxeh5zUJMH3eALxcS3+JkOtBtMeMK4Ifh3OYabDXJm+DPVvxLVo/9bjhj562mOjkj46IHx/5NcQTX+wJN05oK2zHYu51O5jXVVYvg0a2ht8/3gVaaPs1Yj5t7Dq86ER/fL1q+o4a3WYROwyRkpv+Wcvh8ZPS4D+f6iKbLxI7VhfBrvUe+L9M/MPmeXh2KLYHfvRBx2Pd+sXj/i7Jy1jk1W88so0PiX7Ki3q95h8f9MpoAvkrjGll9+hbvb2ULRWJCVJ8wUH8Sx44BOUfOgkp7aLxMi4/+TA9Si+38uND8M5TeA80iHqNGtV6oW0holf4a0sPHt0GJjzeNaDx3OpkxUcH4Yu396KHqud1bss60UWM5kNDXXrjr/bgUNd9YDyeeES7NiIZ6sdNHtizBf+eWgiMJUSNGtnqS1o6IhxE/61l/Lr0xX0aHlMk4h4tuRX9dYty3KPx1WcR7tXobJMbqXr0+Ks5exS9tDIxeQ516j1bnYxSGe4VL2PdeyRhKETimqAH+/M0LnHkO8w1gG/NiHsPES+rCV5Go2HE08Lcq3yJJ+/yS6Q4v5IZRiKCx84uRiVDNwRWg368PS2QQCRUBE9a8B+qQT/4lwqx19C0RuaLxDVCD3ZPs0PevSmC99aJnlNN+qkHl6w3QcQiUgghYDOO4LkGTL0IuBr08/9NK8C78wVxzAAAAABJRU5ErkJggg==;" vertex="1" parent="bsbCJZqVYZQD6unG8yCq-36">
          <mxGeometry x="-20" y="230" width="79.73" height="79" as="geometry" />
        </mxCell>
        <mxCell id="G7_3h8PGm13UY0RfsEPe-1" value="Firewall Manager" style="sketch=0;points=[[0,0,0],[0.25,0,0],[0.5,0,0],[0.75,0,0],[1,0,0],[0,1,0],[0.25,1,0],[0.5,1,0],[0.75,1,0],[1,1,0],[0,0.25,0],[0,0.5,0],[0,0.75,0],[1,0.25,0],[1,0.5,0],[1,0.75,0]];outlineConnect=0;fontColor=#232F3E;gradientColor=#F54749;gradientDirection=north;fillColor=#C7131F;strokeColor=#ffffff;dashed=0;verticalLabelPosition=bottom;verticalAlign=top;align=center;html=1;fontSize=12;fontStyle=0;aspect=fixed;shape=mxgraph.aws4.resourceIcon;resIcon=mxgraph.aws4.firewall_manager;" vertex="1" parent="bsbCJZqVYZQD6unG8yCq-36">
          <mxGeometry x="-20" y="354" width="78" height="78" as="geometry" />
        </mxCell>
        <mxCell id="G7_3h8PGm13UY0RfsEPe-3" value="VPC Reachability&lt;br&gt;Analyzer" style="sketch=0;outlineConnect=0;fontColor=#232F3E;gradientColor=none;fillColor=#4D27AA;strokeColor=none;dashed=0;verticalLabelPosition=bottom;verticalAlign=top;align=center;html=1;fontSize=12;fontStyle=0;aspect=fixed;pointerEvents=1;shape=mxgraph.aws4.vpc_reachability_analyzer;" vertex="1" parent="bsbCJZqVYZQD6unG8yCq-36">
          <mxGeometry x="-20" y="477" width="78" height="78" as="geometry" />
        </mxCell>
        <mxCell id="G7_3h8PGm13UY0RfsEPe-4" value="VPC Flow Logs" style="sketch=0;outlineConnect=0;fontColor=#232F3E;gradientColor=none;fillColor=#4D27AA;strokeColor=none;dashed=0;verticalLabelPosition=bottom;verticalAlign=top;align=center;html=1;fontSize=12;fontStyle=0;aspect=fixed;pointerEvents=1;shape=mxgraph.aws4.flow_logs;" vertex="1" parent="bsbCJZqVYZQD6unG8yCq-36">
          <mxGeometry x="-20" y="600" width="78" height="78" as="geometry" />
        </mxCell>
        <mxCell id="G7_3h8PGm13UY0RfsEPe-14" value="Site to Site&lt;br&gt;VPN" style="sketch=0;points=[[0,0,0],[0.25,0,0],[0.5,0,0],[0.75,0,0],[1,0,0],[0,1,0],[0.25,1,0],[0.5,1,0],[0.75,1,0],[1,1,0],[0,0.25,0],[0,0.5,0],[0,0.75,0],[1,0.25,0],[1,0.5,0],[1,0.75,0]];outlineConnect=0;fontColor=#232F3E;gradientColor=#945DF2;gradientDirection=north;fillColor=#5A30B5;strokeColor=#ffffff;dashed=0;verticalLabelPosition=bottom;verticalAlign=top;align=center;html=1;fontSize=12;fontStyle=0;aspect=fixed;shape=mxgraph.aws4.resourceIcon;resIcon=mxgraph.aws4.site_to_site_vpn;" vertex="1" parent="bsbCJZqVYZQD6unG8yCq-36">
          <mxGeometry x="280" y="20" width="78" height="78" as="geometry" />
        </mxCell>
        <mxCell id="G7_3h8PGm13UY0RfsEPe-13" value="Direct Connect" style="sketch=0;points=[[0,0,0],[0.25,0,0],[0.5,0,0],[0.75,0,0],[1,0,0],[0,1,0],[0.25,1,0],[0.5,1,0],[0.75,1,0],[1,1,0],[0,0.25,0],[0,0.5,0],[0,0.75,0],[1,0.25,0],[1,0.5,0],[1,0.75,0]];outlineConnect=0;fontColor=#232F3E;gradientColor=#945DF2;gradientDirection=north;fillColor=#5A30B5;strokeColor=#ffffff;dashed=0;verticalLabelPosition=bottom;verticalAlign=top;align=center;html=1;fontSize=12;fontStyle=0;aspect=fixed;shape=mxgraph.aws4.resourceIcon;resIcon=mxgraph.aws4.direct_connect;" vertex="1" parent="bsbCJZqVYZQD6unG8yCq-36">
          <mxGeometry x="160" y="20" width="78" height="78" as="geometry" />
        </mxCell>
        <mxCell id="G7_3h8PGm13UY0RfsEPe-17" style="edgeStyle=orthogonalEdgeStyle;rounded=0;orthogonalLoop=1;jettySize=auto;html=1;entryX=0.25;entryY=0;entryDx=0;entryDy=0;entryPerimeter=0;" edge="1" parent="bsbCJZqVYZQD6unG8yCq-36" source="G7_3h8PGm13UY0RfsEPe-13" target="CSp4rStRpKvOpnRkwokL-18">
          <mxGeometry relative="1" as="geometry" />
        </mxCell>
        <mxCell id="G7_3h8PGm13UY0RfsEPe-18" style="edgeStyle=orthogonalEdgeStyle;rounded=0;orthogonalLoop=1;jettySize=auto;html=1;entryX=0.75;entryY=0;entryDx=0;entryDy=0;entryPerimeter=0;" edge="1" parent="bsbCJZqVYZQD6unG8yCq-36" source="G7_3h8PGm13UY0RfsEPe-14" target="CSp4rStRpKvOpnRkwokL-18">
          <mxGeometry relative="1" as="geometry" />
        </mxCell>
        <mxCell id="G7_3h8PGm13UY0RfsEPe-15" style="edgeStyle=orthogonalEdgeStyle;rounded=0;orthogonalLoop=1;jettySize=auto;html=1;entryX=0.5;entryY=0;entryDx=0;entryDy=0;entryPerimeter=0;exitX=0.31;exitY=0.8;exitDx=0;exitDy=0;exitPerimeter=0;" edge="1" parent="bsbCJZqVYZQD6unG8yCq-36" source="CSp4rStRpKvOpnRkwokL-24" target="G7_3h8PGm13UY0RfsEPe-13">
          <mxGeometry relative="1" as="geometry" />
        </mxCell>
        <mxCell id="G7_3h8PGm13UY0RfsEPe-16" style="edgeStyle=orthogonalEdgeStyle;rounded=0;orthogonalLoop=1;jettySize=auto;html=1;entryX=0.5;entryY=0;entryDx=0;entryDy=0;entryPerimeter=0;exitX=0.681;exitY=0.957;exitDx=0;exitDy=0;exitPerimeter=0;" edge="1" parent="bsbCJZqVYZQD6unG8yCq-36" source="CSp4rStRpKvOpnRkwokL-24" target="G7_3h8PGm13UY0RfsEPe-14">
          <mxGeometry relative="1" as="geometry" />
        </mxCell>
        <mxCell id="CSp4rStRpKvOpnRkwokL-24" value="Internet" style="ellipse;shape=cloud;whiteSpace=wrap;html=1;align=center;" parent="bsbCJZqVYZQD6unG8yCq-36" vertex="1">
          <mxGeometry x="170" y="-220" width="175" height="140" as="geometry" />
        </mxCell>
        <mxCell id="hP2f2L5WYCW552Sxo4er-39" value="" style="edgeStyle=orthogonalEdgeStyle;rounded=0;orthogonalLoop=1;jettySize=auto;html=1;entryX=0.066;entryY=0.5;entryDx=0;entryDy=0;entryPerimeter=0;startArrow=classic;startFill=1;" parent="bsbCJZqVYZQD6unG8yCq-36" source="hP2f2L5WYCW552Sxo4er-2" target="CSp4rStRpKvOpnRkwokL-24" edge="1">
          <mxGeometry relative="1" as="geometry">
            <mxPoint x="-230" y="59" as="targetPoint" />
          </mxGeometry>
        </mxCell>
        <mxCell id="hP2f2L5WYCW552Sxo4er-2" value="&amp;nbsp;Corporate Datacenter" style="sketch=0;outlineConnect=0;fontColor=#232F3E;gradientColor=none;fillColor=#232F3D;strokeColor=none;dashed=0;verticalLabelPosition=bottom;verticalAlign=top;align=center;html=1;fontSize=12;fontStyle=0;aspect=fixed;pointerEvents=1;shape=mxgraph.aws4.office_building;" parent="bsbCJZqVYZQD6unG8yCq-36" vertex="1">
          <mxGeometry x="-320" y="-189" width="50" height="78" as="geometry" />
        </mxCell>
        <object id="bsbCJZqVYZQD6unG8yCq-37">
          <mxCell parent="0" />
        </object>
        <mxCell id="FUirZEOFFeTIvt_tyB8f-1" value="Accounts" parent="0" />
        <mxCell id="CSp4rStRpKvOpnRkwokL-67" value="Root/Management Account" style="points=[[0,0],[0.25,0],[0.5,0],[0.75,0],[1,0],[1,0.25],[1,0.5],[1,0.75],[1,1],[0.75,1],[0.5,1],[0.25,1],[0,1],[0,0.75],[0,0.5],[0,0.25]];outlineConnect=0;gradientColor=none;html=1;whiteSpace=wrap;fontSize=12;fontStyle=0;container=1;pointerEvents=0;collapsible=0;recursiveResize=0;shape=mxgraph.aws4.group;grIcon=mxgraph.aws4.group_account;strokeColor=#CD2264;fillColor=none;verticalAlign=top;align=left;spacingLeft=30;fontColor=#CD2264;dashed=0;" parent="FUirZEOFFeTIvt_tyB8f-1" vertex="1">
          <mxGeometry x="-70" y="780" width="540" height="160" as="geometry" />
        </mxCell>
        <mxCell id="CSp4rStRpKvOpnRkwokL-84" value="Control Tower" style="sketch=0;points=[[0,0,0],[0.25,0,0],[0.5,0,0],[0.75,0,0],[1,0,0],[0,1,0],[0.25,1,0],[0.5,1,0],[0.75,1,0],[1,1,0],[0,0.25,0],[0,0.5,0],[0,0.75,0],[1,0.25,0],[1,0.5,0],[1,0.75,0]];points=[[0,0,0],[0.25,0,0],[0.5,0,0],[0.75,0,0],[1,0,0],[0,1,0],[0.25,1,0],[0.5,1,0],[0.75,1,0],[1,1,0],[0,0.25,0],[0,0.5,0],[0,0.75,0],[1,0.25,0],[1,0.5,0],[1,0.75,0]];outlineConnect=0;fontColor=#232F3E;gradientColor=#F34482;gradientDirection=north;fillColor=#BC1356;strokeColor=#ffffff;dashed=0;verticalLabelPosition=bottom;verticalAlign=top;align=center;html=1;fontSize=12;fontStyle=0;aspect=fixed;shape=mxgraph.aws4.resourceIcon;resIcon=mxgraph.aws4.control_tower;dashPattern=8 8;" parent="CSp4rStRpKvOpnRkwokL-67" vertex="1">
          <mxGeometry x="32" y="41" width="78" height="78" as="geometry" />
        </mxCell>
        <mxCell id="CSp4rStRpKvOpnRkwokL-85" value="Organizations" style="sketch=0;points=[[0,0,0],[0.25,0,0],[0.5,0,0],[0.75,0,0],[1,0,0],[0,1,0],[0.25,1,0],[0.5,1,0],[0.75,1,0],[1,1,0],[0,0.25,0],[0,0.5,0],[0,0.75,0],[1,0.25,0],[1,0.5,0],[1,0.75,0]];points=[[0,0,0],[0.25,0,0],[0.5,0,0],[0.75,0,0],[1,0,0],[0,1,0],[0.25,1,0],[0.5,1,0],[0.75,1,0],[1,1,0],[0,0.25,0],[0,0.5,0],[0,0.75,0],[1,0.25,0],[1,0.5,0],[1,0.75,0]];outlineConnect=0;fontColor=#232F3E;gradientColor=#F34482;gradientDirection=north;fillColor=#BC1356;strokeColor=#ffffff;dashed=0;verticalLabelPosition=bottom;verticalAlign=top;align=center;html=1;fontSize=12;fontStyle=0;aspect=fixed;shape=mxgraph.aws4.resourceIcon;resIcon=mxgraph.aws4.organizations;dashPattern=8 8;" parent="CSp4rStRpKvOpnRkwokL-67" vertex="1">
          <mxGeometry x="130" y="41" width="78" height="78" as="geometry" />
        </mxCell>
        <mxCell id="CSp4rStRpKvOpnRkwokL-86" value="IAM Identity Center&lt;br&gt;(SSO)" style="sketch=0;points=[[0,0,0],[0.25,0,0],[0.5,0,0],[0.75,0,0],[1,0,0],[0,1,0],[0.25,1,0],[0.5,1,0],[0.75,1,0],[1,1,0],[0,0.25,0],[0,0.5,0],[0,0.75,0],[1,0.25,0],[1,0.5,0],[1,0.75,0]];outlineConnect=0;fontColor=#232F3E;gradientColor=#F54749;gradientDirection=north;fillColor=#C7131F;strokeColor=#ffffff;dashed=0;verticalLabelPosition=bottom;verticalAlign=top;align=center;html=1;fontSize=12;fontStyle=0;aspect=fixed;shape=mxgraph.aws4.resourceIcon;resIcon=mxgraph.aws4.single_sign_on;dashPattern=8 8;" parent="CSp4rStRpKvOpnRkwokL-67" vertex="1">
          <mxGeometry x="232" y="41" width="78" height="78" as="geometry" />
        </mxCell>
        <mxCell id="CSp4rStRpKvOpnRkwokL-82" value="Security Tooling Account (Previously Audit)" style="points=[[0,0],[0.25,0],[0.5,0],[0.75,0],[1,0],[1,0.25],[1,0.5],[1,0.75],[1,1],[0.75,1],[0.5,1],[0.25,1],[0,1],[0,0.75],[0,0.5],[0,0.25]];outlineConnect=0;gradientColor=none;html=1;whiteSpace=wrap;fontSize=12;fontStyle=0;container=1;pointerEvents=0;collapsible=0;recursiveResize=0;shape=mxgraph.aws4.group;grIcon=mxgraph.aws4.group_account;strokeColor=#CD2264;fillColor=none;verticalAlign=top;align=left;spacingLeft=30;fontColor=#CD2264;dashed=0;" parent="FUirZEOFFeTIvt_tyB8f-1" vertex="1">
          <mxGeometry x="-70" y="950" width="540" height="160" as="geometry" />
        </mxCell>
        <mxCell id="CSp4rStRpKvOpnRkwokL-83" value="Log Archive" style="points=[[0,0],[0.25,0],[0.5,0],[0.75,0],[1,0],[1,0.25],[1,0.5],[1,0.75],[1,1],[0.75,1],[0.5,1],[0.25,1],[0,1],[0,0.75],[0,0.5],[0,0.25]];outlineConnect=0;gradientColor=none;html=1;whiteSpace=wrap;fontSize=12;fontStyle=0;container=1;pointerEvents=0;collapsible=0;recursiveResize=0;shape=mxgraph.aws4.group;grIcon=mxgraph.aws4.group_account;strokeColor=#CD2264;fillColor=none;verticalAlign=top;align=left;spacingLeft=30;fontColor=#CD2264;dashed=0;" parent="FUirZEOFFeTIvt_tyB8f-1" vertex="1">
          <mxGeometry x="-70" y="1120" width="540" height="160" as="geometry" />
        </mxCell>
        <mxCell id="CSp4rStRpKvOpnRkwokL-88" value="S3 for Log Archiving" style="sketch=0;points=[[0,0,0],[0.25,0,0],[0.5,0,0],[0.75,0,0],[1,0,0],[0,1,0],[0.25,1,0],[0.5,1,0],[0.75,1,0],[1,1,0],[0,0.25,0],[0,0.5,0],[0,0.75,0],[1,0.25,0],[1,0.5,0],[1,0.75,0]];outlineConnect=0;fontColor=#232F3E;gradientColor=#60A337;gradientDirection=north;fillColor=#277116;strokeColor=#ffffff;dashed=0;verticalLabelPosition=bottom;verticalAlign=top;align=center;html=1;fontSize=12;fontStyle=0;aspect=fixed;shape=mxgraph.aws4.resourceIcon;resIcon=mxgraph.aws4.s3;dashPattern=8 8;" parent="CSp4rStRpKvOpnRkwokL-83" vertex="1">
          <mxGeometry x="32" y="41" width="78" height="78" as="geometry" />
        </mxCell>
        <mxCell id="CSp4rStRpKvOpnRkwokL-4" value="AWS NonProd" style="points=[[0,0],[0.25,0],[0.5,0],[0.75,0],[1,0],[1,0.25],[1,0.5],[1,0.75],[1,1],[0.75,1],[0.5,1],[0.25,1],[0,1],[0,0.75],[0,0.5],[0,0.25]];outlineConnect=0;gradientColor=none;html=1;whiteSpace=wrap;fontSize=12;fontStyle=0;container=1;pointerEvents=0;collapsible=0;recursiveResize=0;shape=mxgraph.aws4.group;grIcon=mxgraph.aws4.group_account;strokeColor=#CD2264;fillColor=none;verticalAlign=top;align=left;spacingLeft=30;fontColor=#CD2264;dashed=0;" parent="FUirZEOFFeTIvt_tyB8f-1" vertex="1">
          <mxGeometry x="660" y="490" width="810" height="590" as="geometry" />
        </mxCell>
        <mxCell id="CSp4rStRpKvOpnRkwokL-49" value="NonProd VPC" style="points=[[0,0],[0.25,0],[0.5,0],[0.75,0],[1,0],[1,0.25],[1,0.5],[1,0.75],[1,1],[0.75,1],[0.5,1],[0.25,1],[0,1],[0,0.75],[0,0.5],[0,0.25]];outlineConnect=0;gradientColor=none;html=1;whiteSpace=wrap;fontSize=12;fontStyle=0;container=1;pointerEvents=0;collapsible=0;recursiveResize=0;shape=mxgraph.aws4.group;grIcon=mxgraph.aws4.group_vpc;strokeColor=#248814;fillColor=none;verticalAlign=top;align=left;spacingLeft=30;fontColor=#AAB7B8;dashed=0;" parent="CSp4rStRpKvOpnRkwokL-4" vertex="1">
          <mxGeometry x="10" y="80" width="780" height="500" as="geometry" />
        </mxCell>
        <mxCell id="CSp4rStRpKvOpnRkwokL-50" value="Availability Zone B" style="fillColor=none;strokeColor=#147EBA;dashed=1;verticalAlign=top;fontStyle=0;fontColor=#147EBA;dashPattern=8 8;" parent="CSp4rStRpKvOpnRkwokL-49" vertex="1">
          <mxGeometry x="290" y="20" width="230" height="470" as="geometry" />
        </mxCell>
        <mxCell id="CSp4rStRpKvOpnRkwokL-51" value="Availability Zone A" style="fillColor=none;strokeColor=#147EBA;dashed=1;verticalAlign=top;fontStyle=0;fontColor=#147EBA;dashPattern=8 8;" parent="CSp4rStRpKvOpnRkwokL-49" vertex="1">
          <mxGeometry x="40" y="20" width="230" height="470" as="geometry" />
        </mxCell>
        <mxCell id="bsbCJZqVYZQD6unG8yCq-9" value="Availability Zone C" style="fillColor=none;strokeColor=#147EBA;dashed=1;verticalAlign=top;fontStyle=0;fontColor=#147EBA;dashPattern=8 8;" parent="CSp4rStRpKvOpnRkwokL-49" vertex="1">
          <mxGeometry x="530" y="20" width="230" height="470" as="geometry" />
        </mxCell>
        <mxCell id="dmvshPAs6uem1ls85Fd5-4" value="Public subnet&amp;nbsp;" style="points=[[0,0],[0.25,0],[0.5,0],[0.75,0],[1,0],[1,0.25],[1,0.5],[1,0.75],[1,1],[0.75,1],[0.5,1],[0.25,1],[0,1],[0,0.75],[0,0.5],[0,0.25]];outlineConnect=0;gradientColor=none;html=1;whiteSpace=wrap;fontSize=12;fontStyle=0;container=1;pointerEvents=0;collapsible=0;recursiveResize=0;shape=mxgraph.aws4.group;grIcon=mxgraph.aws4.group_security_group;grStroke=0;strokeColor=#248814;fillColor=#E9F3E6;verticalAlign=top;align=left;spacingLeft=30;fontColor=#248814;dashed=0;" parent="CSp4rStRpKvOpnRkwokL-49" vertex="1">
          <mxGeometry x="50" y="50" width="200" height="210" as="geometry" />
        </mxCell>
        <mxCell id="dmvshPAs6uem1ls85Fd5-5" value="Private Subnet" style="points=[[0,0],[0.25,0],[0.5,0],[0.75,0],[1,0],[1,0.25],[1,0.5],[1,0.75],[1,1],[0.75,1],[0.5,1],[0.25,1],[0,1],[0,0.75],[0,0.5],[0,0.25]];outlineConnect=0;gradientColor=none;html=1;whiteSpace=wrap;fontSize=12;fontStyle=0;container=1;pointerEvents=0;collapsible=0;recursiveResize=0;shape=mxgraph.aws4.group;grIcon=mxgraph.aws4.group_security_group;grStroke=0;strokeColor=#147EBA;fillColor=#E6F2F8;verticalAlign=top;align=left;spacingLeft=30;fontColor=#147EBA;dashed=0;" parent="CSp4rStRpKvOpnRkwokL-49" vertex="1">
          <mxGeometry x="50" y="290" width="200" height="200" as="geometry" />
        </mxCell>
        <mxCell id="dmvshPAs6uem1ls85Fd5-12" value="Public subnet&amp;nbsp;" style="points=[[0,0],[0.25,0],[0.5,0],[0.75,0],[1,0],[1,0.25],[1,0.5],[1,0.75],[1,1],[0.75,1],[0.5,1],[0.25,1],[0,1],[0,0.75],[0,0.5],[0,0.25]];outlineConnect=0;gradientColor=none;html=1;whiteSpace=wrap;fontSize=12;fontStyle=0;container=1;pointerEvents=0;collapsible=0;recursiveResize=0;shape=mxgraph.aws4.group;grIcon=mxgraph.aws4.group_security_group;grStroke=0;strokeColor=#248814;fillColor=#E9F3E6;verticalAlign=top;align=left;spacingLeft=30;fontColor=#248814;dashed=0;" parent="CSp4rStRpKvOpnRkwokL-49" vertex="1">
          <mxGeometry x="300" y="50" width="200" height="210" as="geometry" />
        </mxCell>
        <mxCell id="dmvshPAs6uem1ls85Fd5-14" value="Public subnet&amp;nbsp;" style="points=[[0,0],[0.25,0],[0.5,0],[0.75,0],[1,0],[1,0.25],[1,0.5],[1,0.75],[1,1],[0.75,1],[0.5,1],[0.25,1],[0,1],[0,0.75],[0,0.5],[0,0.25]];outlineConnect=0;gradientColor=none;html=1;whiteSpace=wrap;fontSize=12;fontStyle=0;container=1;pointerEvents=0;collapsible=0;recursiveResize=0;shape=mxgraph.aws4.group;grIcon=mxgraph.aws4.group_security_group;grStroke=0;strokeColor=#248814;fillColor=#E9F3E6;verticalAlign=top;align=left;spacingLeft=30;fontColor=#248814;dashed=0;" parent="CSp4rStRpKvOpnRkwokL-49" vertex="1">
          <mxGeometry x="550" y="50" width="200" height="210" as="geometry" />
        </mxCell>
        <mxCell id="dmvshPAs6uem1ls85Fd5-16" value="Private Subnet" style="points=[[0,0],[0.25,0],[0.5,0],[0.75,0],[1,0],[1,0.25],[1,0.5],[1,0.75],[1,1],[0.75,1],[0.5,1],[0.25,1],[0,1],[0,0.75],[0,0.5],[0,0.25]];outlineConnect=0;gradientColor=none;html=1;whiteSpace=wrap;fontSize=12;fontStyle=0;container=1;pointerEvents=0;collapsible=0;recursiveResize=0;shape=mxgraph.aws4.group;grIcon=mxgraph.aws4.group_security_group;grStroke=0;strokeColor=#147EBA;fillColor=#E6F2F8;verticalAlign=top;align=left;spacingLeft=30;fontColor=#147EBA;dashed=0;" parent="CSp4rStRpKvOpnRkwokL-49" vertex="1">
          <mxGeometry x="300" y="290" width="200" height="200" as="geometry" />
        </mxCell>
        <mxCell id="dmvshPAs6uem1ls85Fd5-17" value="Private Subnet" style="points=[[0,0],[0.25,0],[0.5,0],[0.75,0],[1,0],[1,0.25],[1,0.5],[1,0.75],[1,1],[0.75,1],[0.5,1],[0.25,1],[0,1],[0,0.75],[0,0.5],[0,0.25]];outlineConnect=0;gradientColor=none;html=1;whiteSpace=wrap;fontSize=12;fontStyle=0;container=1;pointerEvents=0;collapsible=0;recursiveResize=0;shape=mxgraph.aws4.group;grIcon=mxgraph.aws4.group_security_group;grStroke=0;strokeColor=#147EBA;fillColor=#E6F2F8;verticalAlign=top;align=left;spacingLeft=30;fontColor=#147EBA;dashed=0;" parent="CSp4rStRpKvOpnRkwokL-49" vertex="1">
          <mxGeometry x="550" y="290" width="200" height="200" as="geometry" />
        </mxCell>
        <mxCell id="CSp4rStRpKvOpnRkwokL-5" value="&amp;nbsp;AWSProduction" style="points=[[0,0],[0.25,0],[0.5,0],[0.75,0],[1,0],[1,0.25],[1,0.5],[1,0.75],[1,1],[0.75,1],[0.5,1],[0.25,1],[0,1],[0,0.75],[0,0.5],[0,0.25]];outlineConnect=0;gradientColor=none;html=1;whiteSpace=wrap;fontSize=12;fontStyle=0;container=1;pointerEvents=0;collapsible=0;recursiveResize=0;shape=mxgraph.aws4.group;grIcon=mxgraph.aws4.group_account;strokeColor=#CD2264;fillColor=none;verticalAlign=top;align=left;spacingLeft=30;fontColor=#CD2264;dashed=0;" parent="FUirZEOFFeTIvt_tyB8f-1" vertex="1">
          <mxGeometry x="660" y="-190" width="810" height="620" as="geometry" />
        </mxCell>
        <mxCell id="CSp4rStRpKvOpnRkwokL-15" value="Production VPC" style="points=[[0,0],[0.25,0],[0.5,0],[0.75,0],[1,0],[1,0.25],[1,0.5],[1,0.75],[1,1],[0.75,1],[0.5,1],[0.25,1],[0,1],[0,0.75],[0,0.5],[0,0.25]];outlineConnect=0;gradientColor=none;html=1;whiteSpace=wrap;fontSize=12;fontStyle=0;container=1;pointerEvents=0;collapsible=0;recursiveResize=0;shape=mxgraph.aws4.group;grIcon=mxgraph.aws4.group_vpc;strokeColor=#248814;fillColor=none;verticalAlign=top;align=left;spacingLeft=30;fontColor=#AAB7B8;dashed=0;" parent="CSp4rStRpKvOpnRkwokL-5" vertex="1">
          <mxGeometry x="20" y="90" width="770" height="520" as="geometry" />
        </mxCell>
        <mxCell id="CSp4rStRpKvOpnRkwokL-37" value="Availability Zone A" style="fillColor=none;strokeColor=#147EBA;dashed=1;verticalAlign=top;fontStyle=0;fontColor=#147EBA;dashPattern=8 8;" parent="CSp4rStRpKvOpnRkwokL-15" vertex="1">
          <mxGeometry x="40" y="30" width="230" height="480" as="geometry" />
        </mxCell>
        <mxCell id="CSp4rStRpKvOpnRkwokL-38" value="Availability Zone B" style="fillColor=none;strokeColor=#147EBA;dashed=1;verticalAlign=top;fontStyle=0;fontColor=#147EBA;dashPattern=8 8;" parent="CSp4rStRpKvOpnRkwokL-15" vertex="1">
          <mxGeometry x="275" y="30" width="230" height="480" as="geometry" />
        </mxCell>
        <mxCell id="CSp4rStRpKvOpnRkwokL-16" value="Public subnet&amp;nbsp;" style="points=[[0,0],[0.25,0],[0.5,0],[0.75,0],[1,0],[1,0.25],[1,0.5],[1,0.75],[1,1],[0.75,1],[0.5,1],[0.25,1],[0,1],[0,0.75],[0,0.5],[0,0.25]];outlineConnect=0;gradientColor=none;html=1;whiteSpace=wrap;fontSize=12;fontStyle=0;container=1;pointerEvents=0;collapsible=0;recursiveResize=0;shape=mxgraph.aws4.group;grIcon=mxgraph.aws4.group_security_group;grStroke=0;strokeColor=#248814;fillColor=#E9F3E6;verticalAlign=top;align=left;spacingLeft=30;fontColor=#248814;dashed=0;" parent="CSp4rStRpKvOpnRkwokL-15" vertex="1">
          <mxGeometry x="60" y="70" width="200" height="210" as="geometry" />
        </mxCell>
        <mxCell id="CSp4rStRpKvOpnRkwokL-29" value="Private Subnet" style="points=[[0,0],[0.25,0],[0.5,0],[0.75,0],[1,0],[1,0.25],[1,0.5],[1,0.75],[1,1],[0.75,1],[0.5,1],[0.25,1],[0,1],[0,0.75],[0,0.5],[0,0.25]];outlineConnect=0;gradientColor=none;html=1;whiteSpace=wrap;fontSize=12;fontStyle=0;container=1;pointerEvents=0;collapsible=0;recursiveResize=0;shape=mxgraph.aws4.group;grIcon=mxgraph.aws4.group_security_group;grStroke=0;strokeColor=#147EBA;fillColor=#E6F2F8;verticalAlign=top;align=left;spacingLeft=30;fontColor=#147EBA;dashed=0;" parent="CSp4rStRpKvOpnRkwokL-15" vertex="1">
          <mxGeometry x="290" y="300" width="200" height="200" as="geometry" />
        </mxCell>
        <mxCell id="CSp4rStRpKvOpnRkwokL-89" value="Private Subnet" style="points=[[0,0],[0.25,0],[0.5,0],[0.75,0],[1,0],[1,0.25],[1,0.5],[1,0.75],[1,1],[0.75,1],[0.5,1],[0.25,1],[0,1],[0,0.75],[0,0.5],[0,0.25]];outlineConnect=0;gradientColor=none;html=1;whiteSpace=wrap;fontSize=12;fontStyle=0;container=1;pointerEvents=0;collapsible=0;recursiveResize=0;shape=mxgraph.aws4.group;grIcon=mxgraph.aws4.group_security_group;grStroke=0;strokeColor=#147EBA;fillColor=#E6F2F8;verticalAlign=top;align=left;spacingLeft=30;fontColor=#147EBA;dashed=0;" parent="CSp4rStRpKvOpnRkwokL-15" vertex="1">
          <mxGeometry x="60" y="300" width="200" height="200" as="geometry" />
        </mxCell>
        <mxCell id="bsbCJZqVYZQD6unG8yCq-8" value="Availability Zone C" style="fillColor=none;strokeColor=#147EBA;dashed=1;verticalAlign=top;fontStyle=0;fontColor=#147EBA;dashPattern=8 8;" parent="CSp4rStRpKvOpnRkwokL-15" vertex="1">
          <mxGeometry x="520" y="30" width="230" height="480" as="geometry" />
        </mxCell>
        <mxCell id="bsbCJZqVYZQD6unG8yCq-10" value="Private Subnet" style="points=[[0,0],[0.25,0],[0.5,0],[0.75,0],[1,0],[1,0.25],[1,0.5],[1,0.75],[1,1],[0.75,1],[0.5,1],[0.25,1],[0,1],[0,0.75],[0,0.5],[0,0.25]];outlineConnect=0;gradientColor=none;html=1;whiteSpace=wrap;fontSize=12;fontStyle=0;container=1;pointerEvents=0;collapsible=0;recursiveResize=0;shape=mxgraph.aws4.group;grIcon=mxgraph.aws4.group_security_group;grStroke=0;strokeColor=#147EBA;fillColor=#E6F2F8;verticalAlign=top;align=left;spacingLeft=30;fontColor=#147EBA;dashed=0;" parent="CSp4rStRpKvOpnRkwokL-15" vertex="1">
          <mxGeometry x="550" y="300" width="200" height="200" as="geometry" />
        </mxCell>
        <mxCell id="bsbCJZqVYZQD6unG8yCq-11" value="Public subnet&amp;nbsp;" style="points=[[0,0],[0.25,0],[0.5,0],[0.75,0],[1,0],[1,0.25],[1,0.5],[1,0.75],[1,1],[0.75,1],[0.5,1],[0.25,1],[0,1],[0,0.75],[0,0.5],[0,0.25]];outlineConnect=0;gradientColor=none;html=1;whiteSpace=wrap;fontSize=12;fontStyle=0;container=1;pointerEvents=0;collapsible=0;recursiveResize=0;shape=mxgraph.aws4.group;grIcon=mxgraph.aws4.group_security_group;grStroke=0;strokeColor=#248814;fillColor=#E9F3E6;verticalAlign=top;align=left;spacingLeft=30;fontColor=#248814;dashed=0;" parent="CSp4rStRpKvOpnRkwokL-15" vertex="1">
          <mxGeometry x="290" y="70" width="200" height="210" as="geometry" />
        </mxCell>
        <mxCell id="bsbCJZqVYZQD6unG8yCq-12" value="Public subnet&amp;nbsp;" style="points=[[0,0],[0.25,0],[0.5,0],[0.75,0],[1,0],[1,0.25],[1,0.5],[1,0.75],[1,1],[0.75,1],[0.5,1],[0.25,1],[0,1],[0,0.75],[0,0.5],[0,0.25]];outlineConnect=0;gradientColor=none;html=1;whiteSpace=wrap;fontSize=12;fontStyle=0;container=1;pointerEvents=0;collapsible=0;recursiveResize=0;shape=mxgraph.aws4.group;grIcon=mxgraph.aws4.group_security_group;grStroke=0;strokeColor=#248814;fillColor=#E9F3E6;verticalAlign=top;align=left;spacingLeft=30;fontColor=#248814;dashed=0;" parent="CSp4rStRpKvOpnRkwokL-15" vertex="1">
          <mxGeometry x="540" y="70" width="200" height="210" as="geometry" />
        </mxCell>
        <mxCell id="FUirZEOFFeTIvt_tyB8f-2" value="Internet Gateway" style="sketch=0;outlineConnect=0;fontColor=#232F3E;gradientColor=none;fillColor=#4D27AA;strokeColor=none;dashed=0;verticalLabelPosition=bottom;verticalAlign=top;align=center;html=1;fontSize=12;fontStyle=0;aspect=fixed;pointerEvents=1;shape=mxgraph.aws4.internet_gateway;" parent="FUirZEOFFeTIvt_tyB8f-1" vertex="1">
          <mxGeometry x="1050" y="500" width="50" height="50" as="geometry" />
        </mxCell>
        <mxCell id="FUirZEOFFeTIvt_tyB8f-3" value="Internet Gateway" style="sketch=0;outlineConnect=0;fontColor=#232F3E;gradientColor=none;fillColor=#4D27AA;strokeColor=none;dashed=0;verticalLabelPosition=bottom;verticalAlign=top;align=center;html=1;fontSize=12;fontStyle=0;aspect=fixed;pointerEvents=1;shape=mxgraph.aws4.internet_gateway;" parent="FUirZEOFFeTIvt_tyB8f-1" vertex="1">
          <mxGeometry x="1040" y="-180" width="50" height="50" as="geometry" />
        </mxCell>
        <mxCell id="CSp4rStRpKvOpnRkwokL-2" value="Network Account" style="points=[[0,0],[0.25,0],[0.5,0],[0.75,0],[1,0],[1,0.25],[1,0.5],[1,0.75],[1,1],[0.75,1],[0.5,1],[0.25,1],[0,1],[0,0.75],[0,0.5],[0,0.25]];outlineConnect=0;gradientColor=none;html=1;whiteSpace=wrap;fontSize=12;fontStyle=0;container=1;pointerEvents=0;collapsible=0;recursiveResize=0;shape=mxgraph.aws4.group;grIcon=mxgraph.aws4.group_account;strokeColor=#CD2264;fillColor=none;verticalAlign=top;align=left;spacingLeft=30;fontColor=#CD2264;dashed=0;" parent="FUirZEOFFeTIvt_tyB8f-1" vertex="1">
          <mxGeometry x="-70" y="160" width="540" height="590" as="geometry" />
        </mxCell>
        <mxCell id="G7_3h8PGm13UY0RfsEPe-19" value="Route 53" style="sketch=0;points=[[0,0,0],[0.25,0,0],[0.5,0,0],[0.75,0,0],[1,0,0],[0,1,0],[0.25,1,0],[0.5,1,0],[0.75,1,0],[1,1,0],[0,0.25,0],[0,0.5,0],[0,0.75,0],[1,0.25,0],[1,0.5,0],[1,0.75,0]];outlineConnect=0;fontColor=#232F3E;gradientColor=#945DF2;gradientDirection=north;fillColor=#5A30B5;strokeColor=#ffffff;dashed=0;verticalLabelPosition=bottom;verticalAlign=top;align=center;html=1;fontSize=12;fontStyle=0;aspect=fixed;shape=mxgraph.aws4.resourceIcon;resIcon=mxgraph.aws4.route_53;" vertex="1" parent="CSp4rStRpKvOpnRkwokL-2">
          <mxGeometry x="220" y="460" width="78" height="78" as="geometry" />
        </mxCell>
        <mxCell id="G7_3h8PGm13UY0RfsEPe-8" value="GuardDuty" style="sketch=0;points=[[0,0,0],[0.25,0,0],[0.5,0,0],[0.75,0,0],[1,0,0],[0,1,0],[0.25,1,0],[0.5,1,0],[0.75,1,0],[1,1,0],[0,0.25,0],[0,0.5,0],[0,0.75,0],[1,0.25,0],[1,0.5,0],[1,0.75,0]];outlineConnect=0;fontColor=#232F3E;gradientColor=#F54749;gradientDirection=north;fillColor=#C7131F;strokeColor=#ffffff;dashed=0;verticalLabelPosition=bottom;verticalAlign=top;align=center;html=1;fontSize=12;fontStyle=0;aspect=fixed;shape=mxgraph.aws4.resourceIcon;resIcon=mxgraph.aws4.guardduty;" vertex="1" parent="FUirZEOFFeTIvt_tyB8f-1">
          <mxGeometry x="-40" y="990" width="78" height="78" as="geometry" />
        </mxCell>
        <mxCell id="G7_3h8PGm13UY0RfsEPe-9" value="Security Hub" style="sketch=0;points=[[0,0,0],[0.25,0,0],[0.5,0,0],[0.75,0,0],[1,0,0],[0,1,0],[0.25,1,0],[0.5,1,0],[0.75,1,0],[1,1,0],[0,0.25,0],[0,0.5,0],[0,0.75,0],[1,0.25,0],[1,0.5,0],[1,0.75,0]];outlineConnect=0;fontColor=#232F3E;gradientColor=#F54749;gradientDirection=north;fillColor=#C7131F;strokeColor=#ffffff;dashed=0;verticalLabelPosition=bottom;verticalAlign=top;align=center;html=1;fontSize=12;fontStyle=0;aspect=fixed;shape=mxgraph.aws4.resourceIcon;resIcon=mxgraph.aws4.security_hub;" vertex="1" parent="FUirZEOFFeTIvt_tyB8f-1">
          <mxGeometry x="60" y="990" width="78" height="78" as="geometry" />
        </mxCell>
      </root>
    </mxGraphModel>
  </diagram>
</mxfile>
